<?xml version="1.0" standalone="no"?>
<!DOCTYPE svg PUBLIC "-//W3C//DTD SVG 20010904//EN"
 "http://www.w3.org/TR/2001/REC-SVG-20010904/DTD/svg10.dtd">
<svg version="1.0" xmlns="http://www.w3.org/2000/svg"
 width="150.000000pt" height="150.000000pt" viewBox="0 0 150.000000 150.000000"
 preserveAspectRatio="xMidYMid meet">
<metadata>
Created by potrace 1.11, written by Peter Selinger 2001-2013
</metadata>
<g transform="translate(0.000000,150.000000) scale(0.100000,-0.100000)"
fill="#000000" stroke="none">
<path d="M0 778 c0 -331 2 -599 4 -597 19 22 860 1177 863 1187 4 9 -86 12
-431 12 l-436 0 0 -602z"/>
<path d="M806 1069 c-124 -170 -226 -312 -226 -315 0 -2 178 -4 395 -4 l395 0
0 315 0 315 -169 0 -170 0 -225 -311z"/>
<path d="M320 400 c-91 -125 -166 -240 -168 -254 l-3 -26 610 0 611 0 0 255 0
255 -442 0 -443 -1 -165 -229z"/>
</g>
</svg>
